<?xml version="1.0" encoding="utf-8"?>
<!-- Generator: Adobe Illustrator 19.0.0, SVG Export Plug-In . SVG Version: 6.00 Build 0)  -->
<svg version="1.1" id="图层_1" xmlns="http://www.w3.org/2000/svg" xmlns:xlink="http://www.w3.org/1999/xlink" x="0px" y="0px"
	 viewBox="0 0 5442.5 1319.7" style="enable-background:new 0 0 5442.5 1319.7;" xml:space="preserve">
<style type="text/css">
	.st0{fill:none;}
	.st1{fill:#FFFFFF;}
	.st2{fill:#FFFFFF;stroke:#1E5FA8;stroke-width:7;stroke-miterlimit:10;}
</style>
<rect id="XMLID_1_" x="66.9" y="-54" class="st0" width="5338.9" height="2027.6"/>
<g id="XMLID_286_">
	<g id="XMLID_440_">
		<rect id="XMLID_486_" x="191.2" y="210.9" class="st1" width="737.1" height="94.4"/>
	</g>
	<g id="XMLID_439_">
		<rect id="XMLID_485_" x="197.9" y="397.4" class="st1" width="94.4" height="804.5"/>
	</g>
	<g id="XMLID_438_">
		<rect id="XMLID_484_" x="245.1" y="350.3" class="st1" width="593.3" height="94.4"/>
	</g>
	<g id="XMLID_437_">
		<rect id="XMLID_483_" x="791.2" y="397.4" class="st1" width="94.4" height="804.5"/>
	</g>
	<g id="XMLID_436_">
		<rect id="XMLID_482_" x="400.2" y="258.1" class="st1" width="94.4" height="541.6"/>
	</g>
	<g id="XMLID_435_">
		<rect id="XMLID_481_" x="575.4" y="258.1" class="st1" width="94.4" height="629.2"/>
	</g>
	<g id="XMLID_434_">
		<rect id="XMLID_480_" x="245.1" y="1154.7" class="st1" width="593.3" height="94.4"/>
	</g>
	<g id="XMLID_433_">
		<rect id="XMLID_479_" x="1011.4" y="258.1" class="st1" width="94.4" height="179.8"/>
	</g>
	<g id="XMLID_432_">
		<rect id="XMLID_478_" x="1058.6" y="273.9" class="st1" width="444.9" height="94.4"/>
	</g>
	<g id="XMLID_431_">
		<rect id="XMLID_477_" x="1233.9" y="33.4" class="st1" width="94.4" height="444.9"/>
	</g>
	<g id="XMLID_430_">
		<rect id="XMLID_476_" x="901.3" y="431.1" class="st1" width="768.5" height="94.4"/>
	</g>
	<g id="XMLID_429_">
		<rect id="XMLID_475_" x="984.4" y="595.2" class="st1" width="94.4" height="606.7"/>
	</g>
	<g id="XMLID_428_">
		<rect id="XMLID_474_" x="1031.6" y="548" class="st1" width="521.3" height="94.4"/>
	</g>
	<g id="XMLID_427_">
		<rect id="XMLID_473_" x="1505.8" y="595.2" class="st1" width="94.4" height="606.7"/>
	</g>
	<g id="XMLID_426_">
		<rect id="XMLID_472_" x="1031.6" y="1154.7" class="st1" width="521.3" height="94.4"/>
	</g>
	<g id="XMLID_425_">
		<rect id="XMLID_471_" x="1687.4" y="186.2" class="st1" width="931" height="94.4"/>
	</g>
	<g id="XMLID_424_">
		<rect id="XMLID_470_" x="2184.4" y="237.3" class="st1" width="94.4" height="964.6"/>
	</g>
	<g id="XMLID_423_">
		<rect id="XMLID_469_" x="1708" y="1154.7" class="st1" width="523.6" height="94.4"/>
	</g>
	<g id="XMLID_422_">
		<path id="XMLID_641_" class="st2" d="M2942.7,1188.4"/>
	</g>
	<g id="XMLID_421_">
		<polygon id="XMLID_468_" class="st1" points="2658.9,531.2 2577.9,482.8 2807.8,98.5 2888.8,147 		"/>
	</g>
	<g id="XMLID_420_">
		<polygon id="XMLID_467_" class="st1" points="2638.2,991.7 2552.8,951.5 2788.2,450.4 2873.6,490.5 		"/>
	</g>
	<g id="XMLID_419_">
		<rect id="XMLID_466_" x="3254.4" y="87.3" class="st1" width="134.8" height="94.4"/>
	</g>
	<g id="XMLID_418_">
		<rect id="XMLID_465_" x="3004.3" y="206.4" class="st1" width="716.6" height="94.4"/>
	</g>
	<g id="XMLID_417_">
		<rect id="XMLID_464_" x="3673.7" y="254.2" class="st1" width="94.4" height="161.2"/>
	</g>
	<g id="XMLID_416_">
		<rect id="XMLID_463_" x="3004.3" y="368.2" class="st1" width="716.6" height="94.4"/>
	</g>
	<g id="XMLID_415_">
		<rect id="XMLID_462_" x="2976.4" y="233.4" class="st1" width="94.4" height="968.5"/>
	</g>
	<g id="XMLID_414_">
		<rect id="XMLID_461_" x="3027.2" y="434.5" class="st1" width="693.7" height="94.4"/>
	</g>
	<g id="XMLID_413_">
		<rect id="XMLID_460_" x="3663.6" y="481.7" class="st1" width="94.4" height="720.2"/>
	</g>
	<g id="XMLID_412_">
		<rect id="XMLID_459_" x="3170.7" y="752.5" class="st1" width="393.5" height="94.4"/>
	</g>
	<g id="XMLID_411_">
		<rect id="XMLID_458_" x="3207.3" y="507" class="st1" width="94.4" height="694.9"/>
	</g>
	<g id="XMLID_410_">
		<rect id="XMLID_457_" x="3432.4" y="507" class="st1" width="94.4" height="694.9"/>
	</g>
	<g id="XMLID_409_">
		
			<rect id="XMLID_456_" x="2667.3" y="856.3" transform="matrix(9.625671e-003 1 -1 9.625671e-003 3661.0012 -1750.9751)" class="st1" width="94.4" height="232.9"/>
	</g>
	<g id="XMLID_408_">
		<rect id="XMLID_455_" x="2618.4" y="459.8" class="st1" width="195.5" height="94.4"/>
	</g>
	<g id="XMLID_407_">
		<rect id="XMLID_454_" x="2548.3" y="1141.3" class="st1" width="394.4" height="94.4"/>
	</g>
	<g id="XMLID_406_">
		<polygon id="XMLID_453_" class="st1" points="3950.6,218.7 3947,124.4 4476.6,104.2 4480.2,198.5 		"/>
	</g>
	<g id="XMLID_405_">
		<rect id="XMLID_452_" x="3851.8" y="294.6" class="st1" width="659.5" height="94.4"/>
	</g>
	<g id="XMLID_404_">
		<rect id="XMLID_451_" x="4170.9" y="173.1" class="st1" width="94.4" height="1042.3"/>
	</g>
	<g id="XMLID_403_">
		<polygon id="XMLID_450_" class="st1" points="4072,1217.7 3977.7,1213.1 4018.1,372.7 4112.4,377.2 		"/>
	</g>
	<g id="XMLID_402_">
		<polygon id="XMLID_449_" class="st1" points="4341.9,626.4 4323.9,428.7 4417.9,420.1 4435.9,617.9 		"/>
	</g>
	<g id="XMLID_401_">
		<rect id="XMLID_448_" x="4548.4" y="163.7" class="st1" width="94.4" height="191"/>
	</g>
	<g id="XMLID_400_">
		<rect id="XMLID_447_" x="4595.6" y="116.5" class="st1" width="600" height="94.4"/>
	</g>
	<g id="XMLID_399_">
		<rect id="XMLID_446_" x="5148.4" y="163.7" class="st1" width="94.4" height="191"/>
	</g>
	<g id="XMLID_398_">
		<rect id="XMLID_445_" x="4595.6" y="307.6" class="st1" width="600" height="94.4"/>
	</g>
	<g id="XMLID_397_">
		<rect id="XMLID_444_" x="4568.6" y="486.8" class="st1" width="625" height="94.4"/>
	</g>
	<g id="XMLID_396_">
		<rect id="XMLID_443_" x="4597.5" y="789.1" class="st1" width="596.1" height="94.4"/>
	</g>
	<g id="XMLID_395_">
		<rect id="XMLID_442_" x="4388.9" y="1155" class="st1" width="955" height="94.4"/>
	</g>
	<g id="XMLID_394_">
		<rect id="XMLID_441_" x="4834.9" y="534" class="st1" width="94.4" height="664.9"/>
	</g>
</g>
</svg>
